<svg xmlns="http://www.w3.org/2000/svg" viewBox="0 0 173.5 174.26"><title>HSE_Logo_White</title><path d="M139.84,85V60.46a3.76,3.76,0,0,0-3.77-3.77H56.69v3.77h74l-15.1,15.13H56.69v3.78h55.13L96.72,94.49h-40v3.76H92.95l-3,3s0,0,0,0l0,0h0A3.79,3.79,0,0,0,88.82,104a3.6,3.6,0,0,0,.24,1.2l0,0,2.76,8.2H56.69v3.78H93.05l5.1,15.12H56.69v3.79h52.93a3.77,3.77,0,0,1,3.77,3.76v11.33H56.69V155h79.38a3.77,3.77,0,0,0,3.77-3.78V119.07a3.77,3.77,0,0,0-3.77-3.78h0l-11.43,0a3.76,3.76,0,0,1-2.88-6.1L139,87.38l0,0a3.69,3.69,0,0,0,.86-2.31" transform="translate(-56.58 -56.69)" style="fill:#fff"/><path d="M147.4,115.29a3.78,3.78,0,0,0-3.77,3.78v32.11A3.77,3.77,0,0,0,147.4,155h79.38v-3.78H170.07V139.86a3.78,3.78,0,0,1,3.79-3.77h52.91v-3.79H185.32l5.09-15.12h36.37v-3.78H191.69l2.77-8.2,0,0a3.53,3.53,0,0,0-.83-3.81h0l0,0,0,0-3-3h36.25V94.49h-40L171.67,79.37h55.12V75.59h-58.9L152.8,60.46h74V56.69H147.4a3.77,3.77,0,0,0-3.77,3.77V85a3.67,3.67,0,0,0,.87,2.31l-.05,0,17.48,22.06a3.62,3.62,0,0,1,.66,2.05,3.78,3.78,0,0,1-3.69,3.77Z" transform="translate(-56.58 -56.69)" style="fill:#fff"/><path d="M60.86,175.18c0-2.59-1.11-3.8-4.28-3.9v-1.76c4.1.28,7.7.55,11.14.55s7.07-.27,11.14-.55v1.76c-3.16.1-4.27,1.31-4.27,3.9v18.37H97V175.18c0-2.59-1.12-3.8-4.27-3.9v-1.76c4.08.28,7.7.55,11.14.55s7.06-.27,11.14-.55v1.76c-3.17.1-4.27,1.31-4.27,3.9v48.64c0,2.59,1.1,3.81,4.27,3.88v1.76c-4.09-.27-7.7-.55-11.14-.55s-7.06.29-11.14.55V227.7c3.15-.07,4.27-1.29,4.27-3.88V202.46H74.6v21.36c0,2.59,1.1,3.81,4.27,3.88v1.76c-4.07-.27-7.71-.55-11.14-.55s-7,.29-11.14.55V227.7c3.16-.07,4.28-1.29,4.28-3.88Z" transform="translate(-56.58 -56.69)" style="fill:#fff"/><path d="M126,208.5c1.85,10.13,9,14.85,18.93,14.85,5.47,0,13.37-1.58,13.37-8.54,0-5.58-5.76-7.06-10-8.35l-6.59-1.94c-9.47-2.79-18.95-6.78-18.95-17.73,0-14.38,13.92-18.75,27.75-18.75a51.7,51.7,0,0,1,17.27,3c0,6.69.37,12.34.74,17.17h-1.77c-1.93-8.55-9.46-12.53-17.83-12.53-4.63,0-12.43,1.48-12.43,7.88,0,5.11,4.46,6.6,8.27,7.71l9.75,2.78c9.37,2.7,18.1,6.13,18.1,18.19,0,12.25-12.35,18.75-27.48,18.75A61.51,61.51,0,0,1,125,227.63c0-7.34-.3-13.75-.74-19.13Z" transform="translate(-56.58 -56.69)" style="fill:#fff"/><path d="M184.61,175.74c0-2.6-1.12-3.81-4.27-3.9v-1.77h46.49c.1,5.11.29,10,.75,15h-1.76c-.93-5.1-2.23-6.87-7.25-6.87H198.35v16.06h12.71c4.17,0,4.83-1.39,5.37-4.72h1.76c-.27,2.32-.54,6.3-.54,8.79s.27,6.6.54,8.82h-1.76c-.55-3.33-1.2-4.73-5.37-4.73H198.35v18.29H219.6c5,0,6.58-1.67,8.17-9.47h2.31a173.85,173.85,0,0,0-1.1,17.63H180.34v-1.75c3.15-.11,4.27-1.31,4.27-3.91Z" transform="translate(-56.58 -56.69)" style="fill:#fff"/></svg>